<mxfile host="app.diagrams.net" agent="Mozilla/5.0 (Windows NT 10.0; Win64; x64) AppleWebKit/537.36 (KHTML, like Gecko) Chrome/124.0.0.0 Safari/537.36" version="25.0.0">
  <diagram name="Page-1" id="6133507b-19e7-1e82-6fc7-422aa6c4b21f">
    <mxGraphModel dx="1354" dy="677" grid="1" gridSize="10" guides="1" tooltips="1" connect="1" arrows="1" fold="1" page="1" pageScale="1" pageWidth="1100" pageHeight="850" background="none" math="0" shadow="0">
      <root>
        <mxCell id="0" />
        <mxCell id="1" parent="0" />
        <mxCell id="G_OJlCz1gtCCsmuBDtbi-55" value="" style="rounded=0;whiteSpace=wrap;html=1;" parent="1" vertex="1">
          <mxGeometry x="120" y="30" width="730" height="570" as="geometry" />
        </mxCell>
        <mxCell id="G_OJlCz1gtCCsmuBDtbi-11" value="" style="rounded=0;whiteSpace=wrap;html=1;" parent="1" vertex="1">
          <mxGeometry x="220" y="50" width="500" height="540" as="geometry" />
        </mxCell>
        <mxCell id="G_OJlCz1gtCCsmuBDtbi-1" value="UsuÃ¡rio" style="shape=umlActor;verticalLabelPosition=bottom;verticalAlign=top;html=1;outlineConnect=0;" parent="1" vertex="1">
          <mxGeometry x="170" y="150" width="30" height="60" as="geometry" />
        </mxCell>
        <mxCell id="G_OJlCz1gtCCsmuBDtbi-13" style="edgeStyle=orthogonalEdgeStyle;rounded=0;orthogonalLoop=1;jettySize=auto;html=1;" parent="1" source="G_OJlCz1gtCCsmuBDtbi-2" target="G_OJlCz1gtCCsmuBDtbi-1" edge="1">
          <mxGeometry relative="1" as="geometry">
            <Array as="points">
              <mxPoint x="140" y="390" />
              <mxPoint x="140" y="170" />
            </Array>
          </mxGeometry>
        </mxCell>
        <mxCell id="G_OJlCz1gtCCsmuBDtbi-2" value="Aluno" style="shape=umlActor;verticalLabelPosition=bottom;verticalAlign=top;html=1;outlineConnect=0;" parent="1" vertex="1">
          <mxGeometry x="160" y="375" width="30" height="60" as="geometry" />
        </mxCell>
        <mxCell id="G_OJlCz1gtCCsmuBDtbi-7" value="UC-01: Realizar cadastro" style="ellipse;whiteSpace=wrap;html=1;" parent="1" vertex="1">
          <mxGeometry x="310" y="120" width="85.71" height="60" as="geometry" />
        </mxCell>
        <mxCell id="G_OJlCz1gtCCsmuBDtbi-9" value="UC-02: Realizar login" style="ellipse;whiteSpace=wrap;html=1;" parent="1" vertex="1">
          <mxGeometry x="400" y="180" width="85.71" height="60" as="geometry" />
        </mxCell>
        <mxCell id="G_OJlCz1gtCCsmuBDtbi-16" value="" style="endArrow=none;html=1;rounded=0;entryX=0;entryY=0.5;entryDx=0;entryDy=0;" parent="1" target="G_OJlCz1gtCCsmuBDtbi-9" edge="1">
          <mxGeometry width="50" height="50" relative="1" as="geometry">
            <mxPoint x="210" y="180" as="sourcePoint" />
            <mxPoint x="380" y="270" as="targetPoint" />
          </mxGeometry>
        </mxCell>
        <mxCell id="G_OJlCz1gtCCsmuBDtbi-17" value="" style="endArrow=none;html=1;rounded=0;entryX=0;entryY=0.5;entryDx=0;entryDy=0;" parent="1" target="G_OJlCz1gtCCsmuBDtbi-7" edge="1">
          <mxGeometry width="50" height="50" relative="1" as="geometry">
            <mxPoint x="210" y="170" as="sourcePoint" />
            <mxPoint x="320" y="180" as="targetPoint" />
          </mxGeometry>
        </mxCell>
        <mxCell id="G_OJlCz1gtCCsmuBDtbi-18" value="UC-03: Trocar senha" style="ellipse;whiteSpace=wrap;html=1;" parent="1" vertex="1">
          <mxGeometry x="310" y="210" width="85.71" height="60" as="geometry" />
        </mxCell>
        <mxCell id="G_OJlCz1gtCCsmuBDtbi-19" value="" style="endArrow=none;html=1;rounded=0;entryX=0;entryY=0.5;entryDx=0;entryDy=0;" parent="1" target="G_OJlCz1gtCCsmuBDtbi-18" edge="1">
          <mxGeometry width="50" height="50" relative="1" as="geometry">
            <mxPoint x="210" y="190" as="sourcePoint" />
            <mxPoint x="370" y="230" as="targetPoint" />
          </mxGeometry>
        </mxCell>
        <mxCell id="G_OJlCz1gtCCsmuBDtbi-24" value="UC-05: Visualizar atividades" style="ellipse;whiteSpace=wrap;html=1;" parent="1" vertex="1">
          <mxGeometry x="310" y="350" width="85.71" height="60" as="geometry" />
        </mxCell>
        <mxCell id="G_OJlCz1gtCCsmuBDtbi-25" value="UC-06: Avaliar atividade" style="ellipse;whiteSpace=wrap;html=1;" parent="1" vertex="1">
          <mxGeometry x="400" y="400" width="85.71" height="60" as="geometry" />
        </mxCell>
        <mxCell id="G_OJlCz1gtCCsmuBDtbi-26" value="" style="endArrow=none;html=1;rounded=0;entryX=0;entryY=0.5;entryDx=0;entryDy=0;" parent="1" target="G_OJlCz1gtCCsmuBDtbi-24" edge="1">
          <mxGeometry width="50" height="50" relative="1" as="geometry">
            <mxPoint x="200" y="400" as="sourcePoint" />
            <mxPoint x="290" y="380" as="targetPoint" />
          </mxGeometry>
        </mxCell>
        <mxCell id="G_OJlCz1gtCCsmuBDtbi-27" value="" style="endArrow=none;html=1;rounded=0;entryX=0;entryY=0.5;entryDx=0;entryDy=0;" parent="1" target="G_OJlCz1gtCCsmuBDtbi-25" edge="1">
          <mxGeometry width="50" height="50" relative="1" as="geometry">
            <mxPoint x="200" y="410" as="sourcePoint" />
            <mxPoint x="284" y="425" as="targetPoint" />
          </mxGeometry>
        </mxCell>
        <mxCell id="G_OJlCz1gtCCsmuBDtbi-30" value="UC-09: Manutenir atividades" style="ellipse;whiteSpace=wrap;html=1;" parent="1" vertex="1">
          <mxGeometry x="594.29" y="120" width="85.71" height="60" as="geometry" />
        </mxCell>
        <mxCell id="G_OJlCz1gtCCsmuBDtbi-31" value="UC-10:&lt;div&gt;Criar turmas&lt;/div&gt;" style="ellipse;whiteSpace=wrap;html=1;" parent="1" vertex="1">
          <mxGeometry x="594.29" y="190" width="85.71" height="60" as="geometry" />
        </mxCell>
        <mxCell id="G_OJlCz1gtCCsmuBDtbi-36" value="UC-04: Gerenciar conta" style="ellipse;whiteSpace=wrap;html=1;" parent="1" vertex="1">
          <mxGeometry x="310" y="280" width="85.71" height="60" as="geometry" />
        </mxCell>
        <mxCell id="G_OJlCz1gtCCsmuBDtbi-37" value="" style="endArrow=none;html=1;rounded=0;entryX=0;entryY=0.5;entryDx=0;entryDy=0;" parent="1" target="G_OJlCz1gtCCsmuBDtbi-36" edge="1">
          <mxGeometry width="50" height="50" relative="1" as="geometry">
            <mxPoint x="210" y="200" as="sourcePoint" />
            <mxPoint x="380" y="300" as="targetPoint" />
          </mxGeometry>
        </mxCell>
        <mxCell id="G_OJlCz1gtCCsmuBDtbi-38" value="UC-07: Realizar prova" style="ellipse;whiteSpace=wrap;html=1;" parent="1" vertex="1">
          <mxGeometry x="310" y="445" width="85.71" height="60" as="geometry" />
        </mxCell>
        <mxCell id="G_OJlCz1gtCCsmuBDtbi-39" value="" style="endArrow=none;html=1;rounded=0;entryX=0;entryY=0.5;entryDx=0;entryDy=0;" parent="1" target="G_OJlCz1gtCCsmuBDtbi-38" edge="1">
          <mxGeometry width="50" height="50" relative="1" as="geometry">
            <mxPoint x="200" y="420" as="sourcePoint" />
            <mxPoint x="310" y="485" as="targetPoint" />
          </mxGeometry>
        </mxCell>
        <mxCell id="G_OJlCz1gtCCsmuBDtbi-40" value="UC-11:&lt;div&gt;Cadastrar prova&lt;/div&gt;" style="ellipse;whiteSpace=wrap;html=1;" parent="1" vertex="1">
          <mxGeometry x="594.29" y="260" width="85.71" height="60" as="geometry" />
        </mxCell>
        <mxCell id="G_OJlCz1gtCCsmuBDtbi-41" value="UC-12:&lt;div&gt;Editar prova&lt;/div&gt;" style="ellipse;whiteSpace=wrap;html=1;" parent="1" vertex="1">
          <mxGeometry x="594.29" y="330" width="85.71" height="60" as="geometry" />
        </mxCell>
        <mxCell id="G_OJlCz1gtCCsmuBDtbi-44" value="UC-13:&lt;div&gt;Visualizar resultados de prova&lt;/div&gt;" style="ellipse;whiteSpace=wrap;html=1;" parent="1" vertex="1">
          <mxGeometry x="594.29" y="400" width="85.71" height="60" as="geometry" />
        </mxCell>
        <mxCell id="G_OJlCz1gtCCsmuBDtbi-46" value="Professor" style="shape=umlActor;verticalLabelPosition=bottom;verticalAlign=top;html=1;outlineConnect=0;" parent="1" vertex="1">
          <mxGeometry x="800" y="270" width="30" height="60" as="geometry" />
        </mxCell>
        <mxCell id="G_OJlCz1gtCCsmuBDtbi-49" value="" style="endArrow=none;html=1;rounded=0;entryX=1;entryY=0.5;entryDx=0;entryDy=0;" parent="1" target="G_OJlCz1gtCCsmuBDtbi-40" edge="1">
          <mxGeometry width="50" height="50" relative="1" as="geometry">
            <mxPoint x="790" y="290" as="sourcePoint" />
            <mxPoint x="690" y="235" as="targetPoint" />
          </mxGeometry>
        </mxCell>
        <mxCell id="G_OJlCz1gtCCsmuBDtbi-50" value="" style="endArrow=none;html=1;rounded=0;entryX=1;entryY=0.5;entryDx=0;entryDy=0;" parent="1" target="G_OJlCz1gtCCsmuBDtbi-41" edge="1">
          <mxGeometry width="50" height="50" relative="1" as="geometry">
            <mxPoint x="790" y="310" as="sourcePoint" />
            <mxPoint x="690" y="300" as="targetPoint" />
          </mxGeometry>
        </mxCell>
        <mxCell id="G_OJlCz1gtCCsmuBDtbi-52" value="" style="endArrow=none;html=1;rounded=0;entryX=1;entryY=0.5;entryDx=0;entryDy=0;" parent="1" source="G_OJlCz1gtCCsmuBDtbi-46" target="G_OJlCz1gtCCsmuBDtbi-44" edge="1">
          <mxGeometry width="50" height="50" relative="1" as="geometry">
            <mxPoint x="800" y="340" as="sourcePoint" />
            <mxPoint x="690" y="370" as="targetPoint" />
          </mxGeometry>
        </mxCell>
        <mxCell id="G_OJlCz1gtCCsmuBDtbi-53" style="edgeStyle=orthogonalEdgeStyle;rounded=0;orthogonalLoop=1;jettySize=auto;html=1;exitX=0.5;exitY=0;exitDx=0;exitDy=0;exitPerimeter=0;entryX=0.5;entryY=0;entryDx=0;entryDy=0;entryPerimeter=0;" parent="1" source="G_OJlCz1gtCCsmuBDtbi-46" target="G_OJlCz1gtCCsmuBDtbi-1" edge="1">
          <mxGeometry relative="1" as="geometry">
            <Array as="points">
              <mxPoint x="815" y="100" />
              <mxPoint x="185" y="100" />
            </Array>
          </mxGeometry>
        </mxCell>
        <mxCell id="G_OJlCz1gtCCsmuBDtbi-54" value="Sistema EnglishSchool" style="text;html=1;align=center;verticalAlign=middle;whiteSpace=wrap;rounded=0;" parent="1" vertex="1">
          <mxGeometry x="455" y="60" width="60" height="30" as="geometry" />
        </mxCell>
        <mxCell id="G_OJlCz1gtCCsmuBDtbi-57" value="" style="endArrow=none;html=1;rounded=0;entryX=1.006;entryY=0.562;entryDx=0;entryDy=0;entryPerimeter=0;" parent="1" target="G_OJlCz1gtCCsmuBDtbi-31" edge="1">
          <mxGeometry width="50" height="50" relative="1" as="geometry">
            <mxPoint x="790" y="280" as="sourcePoint" />
            <mxPoint x="690" y="220" as="targetPoint" />
          </mxGeometry>
        </mxCell>
        <mxCell id="G_OJlCz1gtCCsmuBDtbi-58" value="" style="endArrow=none;html=1;rounded=0;entryX=0.989;entryY=0.569;entryDx=0;entryDy=0;entryPerimeter=0;" parent="1" source="G_OJlCz1gtCCsmuBDtbi-46" target="G_OJlCz1gtCCsmuBDtbi-30" edge="1">
          <mxGeometry width="50" height="50" relative="1" as="geometry">
            <mxPoint x="640" y="270" as="sourcePoint" />
            <mxPoint x="690" y="220" as="targetPoint" />
          </mxGeometry>
        </mxCell>
        <mxCell id="G_OJlCz1gtCCsmuBDtbi-59" value="UC-08: Visualizar resultado de prova" style="ellipse;whiteSpace=wrap;html=1;" parent="1" vertex="1">
          <mxGeometry x="310" y="520" width="85.71" height="60" as="geometry" />
        </mxCell>
        <mxCell id="G_OJlCz1gtCCsmuBDtbi-60" value="" style="endArrow=none;html=1;rounded=0;exitX=0;exitY=0.5;exitDx=0;exitDy=0;" parent="1" source="G_OJlCz1gtCCsmuBDtbi-59" edge="1">
          <mxGeometry width="50" height="50" relative="1" as="geometry">
            <mxPoint x="440" y="500" as="sourcePoint" />
            <mxPoint x="200" y="430" as="targetPoint" />
          </mxGeometry>
        </mxCell>
      </root>
    </mxGraphModel>
  </diagram>
</mxfile>
